<?xml version="1.0" standalone="no"?>
<!DOCTYPE svg PUBLIC "-//W3C//DTD SVG 20010904//EN"
 "http://www.w3.org/TR/2001/REC-SVG-20010904/DTD/svg10.dtd">
<svg version="1.0" xmlns="http://www.w3.org/2000/svg"
 width="320.000000pt" height="320.000000pt" viewBox="0 0 320.000000 320.000000"
 preserveAspectRatio="xMidYMid meet">

<g transform="translate(0.000000,320.000000) scale(0.100000,-0.100000)"
fill="#000000" stroke="none">
<path d="M1450 3189 c-668 -64 -1226 -540 -1394 -1189 -37 -144 -49 -241 -49
-400 0 -330 87 -618 271 -894 224 -335 602 -588 1003 -670 537 -110 1092 66
1475 467 230 241 373 535 425 872 16 103 16 347 0 450 -52 337 -195 631 -425
872 -275 288 -620 455 -1021 493 -122 11 -161 11 -285 -1z m-919 -1300 c19 -7
49 -23 67 -37 34 -24 34 -25 14 -44 -20 -20 -20 -20 -64 6 -25 14 -59 26 -77
26 -39 0 -87 -23 -101 -49 -29 -56 6 -101 112 -140 93 -35 131 -60 152 -105
48 -102 -20 -205 -147 -222 -55 -8 -114 9 -167 47 l-43 31 21 21 21 20 40 -27
c95 -66 231 -28 231 65 0 43 -37 76 -129 114 -108 44 -130 59 -147 100 -18 43
-18 79 0 113 41 78 128 111 217 81z m667 -11 c7 -7 12 -21 12 -33 0 -12 -5
-26 -12 -33 -28 -28 -78 -7 -78 33 0 12 5 26 12 33 7 7 21 12 33 12 12 0 26
-5 33 -12z m-408 -175 l0 -178 88 88 c80 80 91 87 127 87 l40 0 -88 -87 -87
-88 97 -97 98 -98 -40 0 c-37 0 -47 7 -137 97 l-98 98 0 -98 0 -97 -30 0 -30
0 0 275 0 275 30 0 30 0 0 -177z m590 -98 l0 -275 -30 0 -30 0 0 275 0 275 30
0 30 0 0 -275z m180 0 l0 -275 -30 0 -30 0 0 275 0 275 30 0 30 0 0 -275z
m189 183 c-1 -87 0 -93 17 -88 11 3 44 5 74 5 70 0 125 -28 165 -84 24 -34 29
-52 30 -99 0 -77 -27 -128 -90 -167 -44 -27 -57 -30 -129 -29 -135 0 -126 -20
-126 289 l0 265 31 0 30 0 -2 -92z m612 -79 c127 -43 181 -186 113 -296 -67
-108 -207 -132 -300 -51 -95 84 -100 210 -10 297 55 54 129 72 197 50z m-1166
-194 l0 -180 -27 -3 -28 -3 0 186 0 186 28 -3 27 -3 0 -180z m1474 118 l55
-66 25 29 c14 16 40 46 57 67 27 33 36 38 67 35 l36 -3 -74 -86 -74 -86 32
-39 c18 -22 54 -65 81 -96 l48 -58 -38 0 c-36 0 -44 6 -97 70 -32 39 -61 70
-65 69 -4 0 -32 -31 -62 -69 -51 -63 -58 -69 -94 -69 -35 -1 -37 1 -25 16 8 9
42 50 77 92 34 41 62 79 62 83 0 6 -43 60 -128 161 -14 16 -12 17 24 16 36 0
44 -6 93 -66z"/>
<path d="M1772 1636 c-22 -12 -23 -18 -23 -126 0 -129 -1 -128 79 -129 148 -3
208 177 83 247 -43 25 -104 28 -139 8z"/>
<path d="M2235 1641 c-52 -31 -68 -58 -72 -114 -3 -40 1 -60 16 -84 43 -68
119 -90 189 -54 72 37 98 118 60 190 -39 75 -127 103 -193 62z"/>
</g>
</svg>
